PathFileType	4	(X/Y/Z)	Kaydara	
DataRate	CameraRate	NumFrames	NumMarkers	Units	OrigDataRate	OrigDataStartFrame	OrigNumFrames	
120.00	120.00	4	72	mm	120.00	1	261	
Frame#	Time	Hips			RightUpLeg			RightLeg			RightFoot			RightFoot_End			LeftUpLeg			LeftLeg			LeftFoot			LeftFoot_End			Spine			Spine1			Spine2			Spine3			Neck			Head			Head_End			RightShoulder			RightArm			RightForeArm			RightHand			RightHandThumb1			RightHandThumb2			RightHandThumb3			RightHandThumb3_End			RightInHandIndex			RightHandIndex1			RightHandIndex2			RightHandIndex3			RightHandIndex3_End			RightInHandMiddle			RightHandMiddle1			RightHandMiddle2			RightHandMiddle3			RightHandMiddle3_End			RightInHandRing			RightHandRing1			RightHandRing2			RightHandRing3			RightHandRing3_End			RightInHandPinky			RightHandPinky1			RightHandPinky2			RightHandPinky3			RightHandPinky3_End			LeftShoulder			LeftArm			LeftForeArm			LeftHand			LeftHandThumb1			LeftHandThumb2			LeftHandThumb3			LeftHandThumb3_End			LeftInHandIndex			LeftHandIndex1			LeftHandIndex2			LeftHandIndex3			LeftHandIndex3_End			LeftInHandMiddle			LeftHandMiddle1			LeftHandMiddle2			LeftHandMiddle3			LeftHandMiddle3_End			LeftInHandRing			LeftHandRing1			LeftHandRing2			LeftHandRing3			LeftHandRing3_End			LeftInHandPinky			LeftHandPinky1			LeftHandPinky2			LeftHandPinky3			LeftHandPinky3_End			
		X1	Y1	Z1	X2	Y2	Z2	X3	Y3	Z3	X4	Y4	Z4	X5	Y5	Z5	X6	Y6	Z6	X7	Y7	Z7	X8	Y8	Z8	X9	Y9	Z9	X10	Y10	Z10	X11	Y11	Z11	X12	Y12	Z12	X13	Y13	Z13	X14	Y14	Z14	X15	Y15	Z15	X16	Y16	Z16	X17	Y17	Z17	X18	Y18	Z18	X19	Y19	Z19	X20	Y20	Z20	X21	Y21	Z21	X22	Y22	Z22	X23	Y23	Z23	X24	Y24	Z24	X25	Y25	Z25	X26	Y26	Z26	X27	Y27	Z27	X28	Y28	Z28	X29	Y29	Z29	X30	Y30	Z30	X31	Y31	Z31	X32	Y32	Z32	X33	Y33	Z33	X34	Y34	Z34	X35	Y35	Z35	X36	Y36	Z36	X37	Y37	Z37	X38	Y38	Z38	X39	Y39	Z39	X40	Y40	Z40	X41	Y41	Z41	X42	Y42	Z42	X43	Y43	Z43	X44	Y44	Z44	X45	Y45	Z45	X46	Y46	Z46	X47	Y47	Z47	X48	Y48	Z48	X49	Y49	Z49	X50	Y50	Z50	X51	Y51	Z51	X52	Y52	Z52	X53	Y53	Z53	X54	Y54	Z54	X55	Y55	Z55	X56	Y56	Z56	X57	Y57	Z57	X58	Y58	Z58	X59	Y59	Z59	X60	Y60	Z60	X61	Y61	Z61	X62	Y62	Z62	X63	Y63	Z63	X64	Y64	Z64	X65	Y65	Z65	X66	Y66	Z66	X67	Y67	Z67	X68	Y68	Z68	X69	Y69	Z69	X70	Y70	Z70	X71	Y71	Z71	X72	Y72	Z72	

1	0.0	5081.203	893.81699	129.612	5145.684041095427	888.0887239735591	73.09728713844147	5062.520551797162	487.86827761046425	-15.1856326108103	5049.170338582443	105.68264067901784	-68.66555374525957	4939.909109344496	29.108112917095568	66.91198628732754	5032.414502371491	875.1384745557287	199.41192796110494	4932.8709927206955	482.0801590506423	303.53261761694455	4833.419619159442	67.80694126971898	405.0303823156292	4688.684912464415	2.6696128351067916	300.94518010014724	5011.4041021474795	1007.8464360615712	79.40137585429511	4946.556343803105	1062.3968977674533	32.392252861073004	4875.009900071264	1112.0696715751915	-18.535337526244522	4801.081496984253	1147.6067472259053	-69.79656261678913	4721.2918284603265	1187.373616715467	-122.35873865617985	4645.010427684475	1220.5091455420632	-166.28213922761134	4505.594449476846	1297.668836821872	-172.01967089925182	4762.695461056218	1173.7857238603713	-125.5808400325658	4803.235513698942	1147.7311018462835	-203.5063924386494	4844.406810680086	937.6178002607502	-171.8949642734581	4898.011750850834	761.287724423349	-163.48403012076463	4887.908106768266	751.6999544212902	-177.52023518399312	4874.095622673745	739.1595690136834	-177.47538910041675	4866.734711173332	728.6365430175408	-175.19318814256854	4862.529976688281	718.3327373943426	-171.36496956436758	4896.082474910672	743.8885540057613	-171.6303236237647	4897.1491577955185	712.8908738092017	-171.8701583796359	4892.514186478689	694.0726676999215	-167.27548441576835	4884.758832843666	687.74793308258	-163.62034061938627	4875.052211019185	686.1382497067788	-160.05627986610267	4901.931420063802	740.2300707964561	-165.27336988203427	4906.137062580006	708.0161986408403	-162.07017810595218	4901.840963454352	687.1030474316107	-156.21096041501926	4892.849863904804	679.2907619382025	-151.39542793770093	4882.406711894339	677.441130722688	-147.29845203762613	4906.106054402445	738.3905382949333	-160.80974424799427	4913.702592255513	707.7895600164551	-154.16283627115047	4910.729114422148	689.2257357786377	-148.1963993457173	4902.465925714945	681.5118285151358	-143.09497676284929	4892.840746300266	679.6882093039005	-139.026481464564	4910.338562914132	737.5293949381114	-155.3928889683221	4920.149192189366	708.7677024568217	-146.07000776078718	4918.937363875811	693.5123129782129	-139.98008985248853	4913.475755362981	687.6970224482835	-135.6243343189494	4905.274916586496	685.9729747767539	-131.65499028604953	4732.603024283231	1173.1989581355563	-83.9209564254019	4707.037811225406	1131.0597421952584	0.6364291720154807	4834.360043821862	966.211104976411	-65.3255726678283	4941.775934633441	810.7520381344328	-128.25793655388333	4938.557080205262	807.0660845893549	-147.79225609489902	4956.401247034477	798.2097833663806	-159.45886174148924	4971.226368130913	789.8193569186312	-165.5139976339608	4985.637215991941	780.9230032658076	-168.79150349458374	4945.502941938243	798.4236636581398	-142.58603688992295	4965.970702786672	772.7915266226885	-154.98806765475254	4987.46035229838	756.7475827494203	-161.37459191087837	5001.2558929401375	751.5572279001858	-164.83673662953098	5012.968182633832	750.4882434232435	-167.35946973200143	4951.658317354973	793.3551382406473	-136.41902572708574	4974.949328836789	765.6122509041171	-145.1804934557242	4999.153659939232	747.5217145001931	-151.2927000333469	5016.159706852138	740.9798077749886	-155.05852764114513	5029.15116133614	739.6740584255498	-157.61898147477874	4955.430953763362	790.3904808365361	-131.75727402412988	4979.421804101739	762.8430530502668	-135.59686775272746	5001.253808027987	746.523125150919	-140.0346654254682	5018.048040963808	739.9197194669581	-143.19466013790833	5030.448354458097	738.55304842204	-145.37824976812516	4959.610172091196	788.0142456429273	-125.93268597776529	4984.016904512694	761.1477187112279	-125.90684574819473	5002.542282809818	747.3383127245621	-128.05571897103246	5015.2966567341	742.1633136058966	-129.68110449664218	5026.571719744651	740.7463679634166	-131.22433891326213
2	0.008	5081.203	893.81699	129.612	5146.08468485887	888.3262697115165	73.3448538440436	5062.625885154773	488.15576545310523	-14.90269649560184	5048.6730726852375	105.75993136680468	-67.79025251028504	4939.2708624772495	29.321504162465622	67.8200348649114	5031.993942904903	874.896817976428	199.1799218813154	4932.364323141584	481.9385643126301	303.58111910821606	4832.676025864674	67.96916329324226	405.876057594368	4688.011618013414	3.008061953259273	301.5988581579083	5011.435387645726	1007.8526187276344	79.35736989837731	4946.618037933874	1062.4124392331596	32.310429869698794	4875.104585890298	1112.097457919208	-18.659940689396684	4801.213240848299	1147.6546821041543	-69.96935035488295	4721.452728741226	1187.4395549946353	-122.57297339976053	4645.118992471665	1220.531685380254	-166.47201899038438	4505.67089149645	1297.6356579613746	-172.25939120570317	4762.937021114149	1174.0233500868944	-125.71958840487189	4803.879445308302	1148.76671955828	-203.5187153257142	4846.052803699707	938.8769425573299	-172.99549900779704	4900.991425840459	763.6037127560353	-165.6339732708971	4891.019778511529	754.3009025705911	-179.6783586116459	4877.32486594596	741.9635060706541	-179.8836566051944	4870.048797594785	731.5645165882542	-177.79919712569955	4865.917330503119	721.3492937965136	-174.15596556780952	4899.221845841195	746.4609284332572	-173.85738642800183	4900.522128447009	715.7588292831786	-174.3725646476292	4896.0232471480285	697.1068616289826	-170.0560317746243	4888.317427275719	690.8549965256846	-166.5807625520954	4878.628146243181	689.2850665547952	-163.1702746302174	4905.069469649866	742.7431609753907	-167.55898983156123	4909.502250939382	710.7855338593725	-164.65600847591568	4905.353688004651	690.0449515313971	-159.1072397011473	4896.421885744752	682.3163427135586	-154.51205016039447	4885.997482444182	680.5081489675665	-150.58473001814653	4909.23754383133	740.8545475061308	-163.1290383964702	4917.032928007417	710.441623136623	-156.77845056487428	4914.186695066572	692.0187773625489	-151.08923131577242	4905.9799873544525	684.3805730205963	-146.20386740324582	4896.372097141018	682.5935416216176	-142.2965595588867	4913.4530874820375	739.92554523534	-157.74829512931328	4923.436837220598	711.2957569836085	-148.7173010189305	4922.323928843515	696.137718186206	-142.85842351375908	4916.9020796725	690.3701286864394	-138.6646422110971	4908.715728871382	688.674165471908	-134.8406051641978	4732.667813152937	1173.078496883992	-84.19277028730832	4706.741461361185	1130.343007363485	-0.10326661356974798	4834.974394973872	966.6580395297267	-66.64718339432666	4943.523205771634	812.4193203357327	-130.04301282144772	4940.420257257212	808.9711668725173	-149.41384643023795	4958.3561028522145	800.2316991334421	-160.87629259462463	4973.249685301827	791.9117063749268	-166.81550566337268	4987.721555335175	783.0647206520046	-170.01883137699807	4947.399560319611	800.3242055218868	-144.2973543776148	4968.08557911594	774.952494501677	-156.6380704973274	4989.693679278242	759.0213033873922	-162.92523733588104	5003.523811869554	753.8521537628691	-166.27786657743908	5015.23839356478	752.7677408262367	-168.67774844680304	4953.558305010094	795.2136353840111	-138.20118945452992	4977.064030670671	767.7020372247165	-146.94118984612243	5001.397310103563	749.7280584446733	-152.9544538538988	5018.444944383284	743.2086261279836	-156.5927023414069	5031.438835388553	741.884484010996	-159.020945019983	4957.328165333085	792.213303242112	-133.59179044705033	4981.510241433201	764.844165479994	-137.45974160455813	5003.45398214956	748.618836565752	-141.8210117283293	5020.287981581972	742.0333954403643	-144.863103303934	5032.690421183539	740.6476705316384	-146.92482504005497	4961.494606783922	789.7830833827179	-127.82352783372207	4986.070309809742	763.0491531904175	-127.86086774362388	5004.683304280469	749.3038058400538	-129.96348205578542	5017.465785079383	744.1362539742014	-131.510135084255	5028.742213983314	742.6991745522784	-132.9495960756961
3	0.017	5081.203	893.81699	129.612	5146.494529388756	888.5619192228472	73.60133080782536	5062.715361497267	488.4492463083446	-14.623688755590388	5048.156362474187	105.84400381218813	-66.91392261514804	4938.617366516437	29.538065939705792	68.72831828894269	5031.558638908317	874.6544145601837	198.94030744882667	4931.844909400917	481.7960964109509	303.62477903791586	4831.927111349559	68.12569443564458	406.73221854780826	4687.326354132594	3.3295600953240463	302.2759884675644	5011.490509769602	1007.8698809012695	79.30824019859736	4946.716818873251	1062.4514121670109	32.22085401454604	4875.2489413518915	1112.162633570087	-18.795003250237727	4801.404564929092	1147.7546631710425	-70.15555295723821	4721.683969190334	1187.5730612186135	-122.80388852517727	4645.312560852696	1220.6410822190246	-166.68640413214945	4505.835599913653	1297.6940439887185	-172.53209244885332	4763.248082055969	1174.323070735753	-125.87773387795541	4804.6054991141355	1149.8608015244752	-203.58887199780628	4847.709228234103	940.1447683039842	-174.14478783792248	4903.93035031792	765.8875482141754	-167.86689688642844	4894.079326349973	756.8555529479586	-181.9352656350551	4880.483610914582	744.7061361612211	-182.39011118957555	4873.279787621213	734.4218932393186	-180.50124689549463	4869.211254702979	724.2885030700314	-177.0397324004183	4902.309339557045	748.9901220284744	-176.1798263141559	4903.824434459756	718.5699886106466	-176.97703425436498	4899.44546577466	700.0734614414538	-172.93609388042105	4891.778715482946	693.887136138793	-169.63605293134316	4882.097839730844	692.3504768057426	-166.37322677409293	4908.156686559936	745.2166429770667	-169.93470420302896	4912.798847802879	713.5039137724215	-167.33559950307273	4908.780363197111	692.924631503763	-162.09377090693323	4899.895327099899	685.2711029232357	-157.7129694795562	4889.479940914249	683.4973732181744	-153.94866756105762	4912.319447045048	743.2818383819514	-165.53458729027338	4920.29892913202	713.0493608390634	-159.48045691359758	4917.564951586086	694.7582145391783	-154.06464680522953	4909.402758080038	687.1877095037188	-149.3891992222139	4899.803064021989	685.4308457631513	-145.6366490516957	4916.519777758496	742.2885579883621	-160.18483948776375	4926.664292336181	713.785961429277	-151.4429181027154	4925.638718900973	698.7187231600471	-145.81085969371117	4920.248102659021	692.9934225496029	-141.77400562088002	4912.068301234215	691.3201016020364	-138.08925366386353	4732.796305253583	1173.020570125403	-84.47645491549191	4706.497092230974	1129.6796402736359	-0.8274506635513879	4835.6398923318375	967.0988519149187	-67.97080211138874	4945.309671735354	814.0715104168397	-131.85470856801288	4942.319686083854	810.8560357035059	-151.08908381054746	4960.352129764681	802.2448535423637	-162.36679513769678	4975.3178083132025	794.0037530557939	-168.20134747667777	4989.8539094412645	785.2136002432628	-171.33794390961657	4949.332124800846	802.2041776614022	-146.05713795154315	4970.235610436264	777.093326253596	-158.3595350656073	4991.965802304907	761.283837416792	-164.5608923428539	5005.834982432875	756.1457763685629	-167.8111422391084	5017.557022522589	755.0570290017906	-170.09321155972728	4955.495033874122	797.0532733204926	-140.02474112473672	4979.21513096057	769.7743099935212	-148.76187556112563	5003.68144454483	751.9268896484975	-154.68996880879158	5020.776095764947	745.4419684645504	-158.20876219458486	5033.778102578361	744.1116272975977	-160.51007096367383	4959.262658690283	794.0183792780872	-135.46212199617497	4983.636001631973	766.8294561463997	-139.37030650395025	5005.695156581591	750.7076820495562	-143.66598919979927	5022.57422147208	744.1519428519831	-146.59744912673148	5034.984156390879	742.7586894278014	-148.54199730218656	4963.417294974512	791.5361109842266	-129.74297984854698	4988.162466340895	764.9374528017909	-129.85000735818386	5006.866203146936	751.2637008632137	-131.91341221642227	5019.680743663214	746.1123342305962	-133.38580894737805	5030.963345193231	744.66543231727	-134.72517858658352
4	0.025	5081.203	893.81699	129.612	5146.913228385118	888.7957853062699	73.86627876745628	5062.789323287392	488.7482721976779	-14.34735088685667	5047.62230922967	105.93441433048044	-66.03502108261655	4937.950682187415	29.757311512043145	69.63835127365381	5031.1090288668975	874.4111303620189	198.6933658034024	4931.313234656247	481.6520035580049	303.66172836749706	4831.173774411568	68.2755148150268	407.5970719650391	4686.628957914114	3.633746908641295	302.975830495935	5011.569111483247	1007.8983018408659	79.25470113377224	4946.8521609931895	1062.5139312531458	32.124543097797584	4875.4423129035185	1112.2653454837944	-18.939262599303436	4801.654794543151	1147.9068783385344	-70.35381574991231	4721.98485887683	1187.774379027889	-123.0500201382013	4645.590542428369	1220.8377234627717	-166.92384084397062	4506.088185948713	1297.8447652970729	-172.83613210835534	4763.628120233779	1174.6853069164151	-126.0539134060332	4805.414322690812	1151.0147737245795	-203.71593907841054	4849.375273895645	941.4207365683469	-175.34650113379217	4906.831517528645	768.1361396892612	-170.18726590270018	4897.090081934957	759.3602786254744	-184.29597024927932	4883.575393892415	747.3829271223009	-184.9999354043603	4876.431362384281	737.2035264854343	-183.30458444856944	4872.415553112546	727.1447203560589	-180.02152550347304	4905.348347703127	751.472550214612	-178.60254792557717	4907.059995125473	721.3199260546168	-179.68881745583673	4902.7850181733975	702.9672751897268	-175.92100112209587	4895.146929202668	696.8386365199942	-172.79152023033083	4885.465499654137	695.3283000275742	-169.67037824609687	4911.196445053401	747.646996649018	-172.40525401263545	4916.030732710517	716.1670326869759	-170.1139408478653	4912.125144345946	695.7369565696206	-165.17560821948388	4903.274408764629	688.1492855411135	-161.0032026485902	4892.858281346949	686.4025401867166	-157.39520328508	4915.355113801059	745.6689595260762	-168.03100887778083	4923.504380587755	715.6086826010387	-162.27359321937897	4920.867904260306	697.4392501015975	-157.1274161332729	4912.738318651406	689.9278433145	-152.6556937787033	4903.137701279808	688.1942541993888	-149.0513920408719	4919.541930176315	744.6150714390765	-162.7069774896819	4929.835224599203	716.2344287756321	-154.25132894273636	4928.885579772266	701.2508972165563	-148.84185658084314	4923.517709431619	695.5620483249711	-144.95682893376053	4915.336492653018	693.9055147488724	-141.40525928146909	4732.987652230759	1173.0251989633462	-84.77052968640083	4706.303093772456	1129.068064802271	-1.5347479971996272	4836.357236786301	967.5325164074054	-69.29681326661641	4947.138686467427	815.7081281055147	-133.69572582429777	4944.2591625039995	812.7203639784803	-152.82145694062527	4962.393518829096	804.249527697435	-163.93417371669537	4977.435188900527	796.0961829493103	-169.67549029419365	4992.038934904181	787.370649588182	-172.75289538524285	4951.304427157203	804.0631495384596	-147.86878658930567	4972.425170621252	779.2138170715793	-160.1565314770134	4994.281459618961	763.5354071597918	-166.28586863492157	5008.194313738549	758.438729506268	-169.4408960602924	5019.929082501024	757.3571807388064	-171.61012136445595	4957.472233914978	798.8735757070993	-141.89289077782334	4981.406894017393	771.8287881862966	-150.64631311590674	5006.010715072969	754.1183867323751	-156.503243642783	5023.158014108633	747.680506737861	-159.91071782551978	5036.173927333057	746.3566390816018	-162.09028678440546	4961.2381057164	795.805191662561	-137.37133014992267	4985.803186301328	768.7985390255257	-141.33199609487167	5007.981759509931	752.7896693487037	-145.57320849540505	5024.911377063194	746.27584166431	-148.4013043816511	5037.334278363786	744.8870335805711	-150.23328787958394	4965.381821310766	793.2727796479311	-131.69389667586125	4990.297300760615	766.8121603167833	-131.87734018601628	5009.095148283484	753.2178446337974	-133.9086800861915	5021.945829329635	748.0917402090092	-135.311271294629	5033.239495075132	746.6457212656288	-136.55414295957098
